<?xml version="1.0" encoding="utf-8"?>
<!-- Generator: Adobe Illustrator 19.0.0, SVG Export Plug-In . SVG Version: 6.00 Build 0)  -->
<svg version="1.1" xmlns="http://www.w3.org/2000/svg" xmlns:xlink="http://www.w3.org/1999/xlink" x="0px" y="0px"
	 viewBox="0 0 42.7 72.2" enable-background="new 0 0 42.7 72.2" xml:space="preserve">
<g id="g">
	<g id="XMLID_30_">
		<path id="XMLID_60_" d="M41.6,18.9l-5.3,52.7H1.3l1-10.4l21,0l3.2-31.7h-7L17.7,47h3.5l-1,10.6H2.7l3.9-38.7H41.6z"/>
	</g>
</g>
<g id="l">
	<g id="XMLID_28_">
		<path id="XMLID_62_" d="M2.6,57.5l4.5-45.7l-3.6,0l1-10.4h17.7l-5.7,56.1L2.6,57.5z"/>
	</g>
</g>
<g id="o">
	<g id="XMLID_35_">
		<path id="XMLID_57_" d="M41.5,18.9l-3.9,38.6l-35,0l3.8-38.6H41.5z M26.4,29.4h-7l-1.8,17.5l7,0L26.4,29.4z"/>
	</g>
</g>
<g id="r">
	<g id="XMLID_32_">
		<path id="XMLID_55_" d="M41.6,18.8l-1.8,17.7H25.7l0.7-7.1h-7l-2.9,28.1l-14,0l3.9-38.7H41.6z"/>
	</g>
</g>
<g id="y">
	<g id="XMLID_46_">
		<path id="XMLID_53_" d="M41.6,18.9l-5.3,52.7H1.3l1-10.4l21,0l0.4-3.5l-21,0l3.9-38.7h14L17.7,47h7l2.8-28.1L41.6,18.9z"/>
	</g>
</g>
<g id="b">
	<g id="XMLID_47_">
		<path id="XMLID_51_" d="M2.6,57.5l4.5-45.7l-3.6,0l1-10.4h17.7L17.6,47h7l1.8-17.6h-3.5l1-10.6h17.6l-3.9,38.7H2.6z"/>
	</g>
</g>
<g id="x">
	<g id="XMLID_48_">
		<path id="XMLID_49_" d="M23.4,57.5l-4-9.1l-6.5,9.1H2.2l12.9-18.1l-9-20.6h14l3.9,9.3l6.5-9.4h10.6l-13.1,18l9.2,20.7L23.4,57.5z"
			/>
	</g>
</g>
</svg>
