<svg xmlns="http://www.w3.org/2000/svg" viewBox="0 0 347.1 347.1">
  <circle cx="174.5" cy="174" r="172" style="fill:#1B1223;stroke:#30293D;stroke-width:3;stroke-miterlimit:10"/>
  <polygon points="221.5,59.5 58.7,59.5 58.7,237.9 127.5,291.1 290.3,291.1 290.3,112.7" style="fill:#26192D"/>
  <path d="M73.1,181.7v-15.4h34.7v-7.7H73.1v-15.4h54.6v23.1l-9.9,7.7l9.9,7.7v23.1H73.1 v-15.4h34.7v-7.7H73.1z" style="fill:#F1F0A4"/>
  <path d="M145.3,143.2h54.6v61.6h-54.6V143.2z M165.1,158.6v30.8H180v-30.8H165.1z" style="fill:#C92F63"/>
  <path d="M257.1,166.3v-23.1h19.8v23.1L267,174l9.9,7.7v23.1h-19.8v-23.1h-19.8v23.1h-19.8 v-23.1l9.9-7.7l-9.9-7.7v-23.1h19.8v23.1H257.1z" style="fill:#F1F0A4"/>
  <path d="M92.4,84.5v30.8h14.9V92.2h19.8v38.5H72.5V69.1h54.6v15.4H92.4z" style="fill:#C92F63"/>
  <path d="M144.6,69.1h19.8v46.2h35.3l0,15.4h-55.2V69.1z" style="fill:#C92F63"/>
  <path d="M145,232.8v-15.4h54.6v38.5h-34.7v23.1H145v-38.5h34.7v-7.7H145z M189.6,263.6 l9.9,15.4h-19.8l-9.9-15.4H189.6z" style="fill:#C92F63"/>
  <path d="M257.1,255.9h-39.9v-38.5H237v23.1h20.1v-23.1h19.8v61.6h-59.8v-15.4h39.9V255.9z" style="fill:#C92F63"/>
  <polygon points="72.2,217.7 128.6,217.7 128.6,261.4" style="fill:#382942"/>
  <polygon points="276.9,130.6 216.6,130.7 216.1,83.4" style="fill:#382942"/>
</svg>
